<svg
        id="logo"
        xmlns="http://www.w3.org/2000/svg"
        viewBox="0 0 512 512"
        width="512"
        height="512">
    <title>Logo</title>
    <g transform="translate(20.000000, 0.000000)">
        <path
                id="Shape"
                stroke-width="10"
                stroke="#64ffda"
                fill="#0a192f"
                stroke-linecap="round"
                stroke-linejoin="round"
                d="M234.291 13.158C234.291 13.158 451.891 134.758 451.891 134.758 451.891 134.758 451.891 377.958 451.891 377.958 451.891 377.958 234.291 499.558 234.291 499.558 234.291 499.558 16.691 377.958 16.691 377.958 16.691 377.958 16.691 134.758 16.691 134.758 16.691 134.758 234.291 13.158 234.291 13.158Z"/>
        <g>
            <path
                    fill="#64ffda"
                    d="M294.195 348.57C294.195 348.57 273.254 290.202 273.254 290.202 273.254 290.202 192.87 289.628 192.87 290.202 192.87 290.202 172.237 348.57 172.237 348.57 172.237 348.57 136.09 348.57 136.09 348.57 136.09 348.57 214.733 137.574 214.733 137.574 214.733 137.574 252.109 137.574 252.109 137.574 252.109 137.574 330.752 348.57 330.752 348.57 330.752 348.57 294.195 348.57 294.195 348.57M264.141 260.608C264.141 260.608 244.531 203.315 244.531 203.315 243.046 199.578 241.05 193.536 238.49 185.293 235.981 177.05 234.24 170.957 233.216 167.117 230.707 178.893 226.918 191.795 221.952 205.773 221.952 205.773 202.957 260.608 202.957 260.608 202.957 260.608 264.141 260.608 264.141 260.608Z"/>
        </g>
    </g>
</svg>